<svg xmlns="http://www.w3.org/2000/svg" width="24" height="24" viewBox="0 0 24 24" fill="none">
<path d="M11.3697 5.08493C11.7819 4.96583 12.2181 4.96583 12.6303 5.08493C12.9071 5.16491 13.1372 5.30176 13.3478 5.45332C13.5439 5.59436 13.7641 5.77926 14.011 5.98644L17.8151 9.17912C17.8345 9.19543 17.8539 9.21165 17.8732 9.22781C18.1342 9.44629 18.3806 9.65253 18.5644 9.91711C18.7253 10.1488 18.845 10.4082 18.9177 10.6831C19.0008 10.9969 19.0004 11.3239 18.9999 11.6703C18.9999 11.6959 18.9999 11.7217 18.9999 11.7475V19.7057C18.9999 19.71 18.9999 19.7146 18.9999 19.7195C18.9999 19.7767 19 19.864 18.9937 19.9439C18.986 20.0408 18.9648 20.2015 18.8794 20.3741C18.7734 20.5883 18.6044 20.7624 18.3964 20.8715C18.2287 20.9595 18.0727 20.9813 17.9786 20.9892C17.901 20.9957 17.8162 20.9956 17.7607 20.9956C17.756 20.9956 17.7515 20.9956 17.7473 20.9956H13.9158C13.914 20.9956 13.9119 20.9956 13.9095 20.9956C13.884 20.9957 13.8232 20.9958 13.7651 20.9909C13.6915 20.9847 13.5506 20.9664 13.3961 20.8853C13.2112 20.7883 13.0609 20.6335 12.9667 20.4432C12.888 20.2841 12.8702 20.139 12.8642 20.0631C12.8594 20.0033 12.8596 19.9407 12.8596 19.9145C12.8596 19.912 12.8596 19.9098 12.8596 19.908V15.6841H11.1404V19.908C11.1404 19.9098 11.1404 19.912 11.1404 19.9145C11.1404 19.9407 11.1406 20.0033 11.1358 20.0631C11.1298 20.139 11.112 20.2841 11.0333 20.4432C10.9391 20.6335 10.7888 20.7883 10.6039 20.8853C10.4494 20.9664 10.3085 20.9847 10.2349 20.9909C10.1768 20.9958 10.116 20.9957 10.0905 20.9956C10.0881 20.9956 10.086 20.9956 10.0842 20.9956H6.25274C6.2485 20.9956 6.24403 20.9956 6.23935 20.9956C6.1838 20.9956 6.09897 20.9957 6.02142 20.9892C5.92731 20.9813 5.77126 20.9595 5.60361 20.8715C5.39564 20.7624 5.22656 20.5883 5.1206 20.3741C5.03517 20.2015 5.01402 20.0408 5.00633 19.9439C5 19.864 5.00007 19.7766 5.00013 19.7194C5.00013 19.7146 5.00013 19.71 5.00013 19.7057V11.7475C5.00013 11.7217 5.0001 11.6959 5.00007 11.6703C4.99961 11.3239 4.99919 10.9969 5.08225 10.6831C5.15501 10.4082 5.27465 10.1488 5.43561 9.91711C5.61937 9.65253 5.86578 9.44629 6.12682 9.22781C6.14612 9.21165 6.1655 9.19543 6.18494 9.17912L9.98905 5.98642C10.2359 5.77924 10.4562 5.59435 10.6522 5.45332C10.8628 5.30176 11.0929 5.16491 11.3697 5.08493ZM12.1659 6.78959C12.0574 6.75825 11.9426 6.75825 11.8341 6.78959C11.8157 6.79491 11.7655 6.81209 11.6369 6.90462C11.4994 7.00355 11.3287 7.14609 11.0535 7.37707L7.2711 10.5515C6.91551 10.85 6.86612 10.9008 6.834 10.9471C6.79164 11.0081 6.76015 11.0763 6.74101 11.1487C6.72649 11.2035 6.7194 11.2751 6.7194 11.7475V19.2251H9.4211V15.0013C9.4211 14.9994 9.4211 14.9973 9.42109 14.9948C9.42103 14.9685 9.42088 14.9059 9.42563 14.8461C9.43165 14.7703 9.44945 14.6252 9.52818 14.4661C9.62237 14.2757 9.77266 14.1209 9.95752 14.0239C10.112 13.9429 10.2529 13.9245 10.3266 13.9183C10.3846 13.9134 10.4454 13.9136 10.4709 13.9137C10.4734 13.9137 10.4755 13.9137 10.4772 13.9137H13.5228C13.5245 13.9137 13.5266 13.9137 13.5291 13.9137C13.5546 13.9136 13.6154 13.9134 13.6734 13.9183C13.7471 13.9245 13.888 13.9429 14.0425 14.0239C14.2273 14.1209 14.3776 14.2757 14.4718 14.4661C14.5505 14.6252 14.5684 14.7703 14.5744 14.8461C14.5791 14.9059 14.579 14.9685 14.5789 14.9948C14.5789 14.9973 14.5789 14.9994 14.5789 15.0013V19.2251H17.2806V11.7475C17.2806 11.2751 17.2735 11.2035 17.259 11.1487C17.2398 11.0763 17.2084 11.0081 17.166 10.9471C17.1339 10.9008 17.0845 10.85 16.7289 10.5515L12.9465 7.37706C12.6713 7.14609 12.5006 7.00355 12.3631 6.90462C12.2345 6.81209 12.1843 6.79491 12.1659 6.78959Z" fill="white"/>
</svg>