<svg xmlns="http://www.w3.org/2000/svg" width="24" height="24" viewBox="0 0 24 24" fill="none">
<path fill-rule="evenodd" clip-rule="evenodd" d="M2.70295 13.2976C2.31574 13.6848 2.3211 14.318 2.71494 14.7118L3.90845 15.9052C4.30226 16.299 4.93473 16.2782 5.44655 16.0795C6.32406 15.7386 7.36716 15.9294 8.08532 16.6476C8.80347 17.3657 8.99418 18.4088 8.65335 19.2864C8.45456 19.7982 8.43379 20.4307 8.8276 20.8245L10.0216 22.0184C10.4154 22.4123 11.0485 22.4176 11.4357 22.0304L22.0543 11.4118C22.4415 11.0246 22.4362 10.3914 22.0424 9.99763L20.8487 8.80393C20.4549 8.41012 19.8224 8.43088 19.3105 8.62967C18.433 8.97046 17.3899 8.77971 16.6718 8.06156C15.9536 7.34341 15.7629 6.30033 16.1037 5.42282C16.3025 4.91099 16.3232 4.2785 15.9294 3.88469L14.7357 2.69098C14.3419 2.29717 13.7088 2.29182 13.3216 2.67902L2.70295 13.2976ZM10.7671 10.1666C10.3766 10.5571 10.3766 11.1902 10.7671 11.5808L13.0475 13.8612C13.438 14.2517 14.0712 14.2517 14.4617 13.8612L14.8075 13.5154C15.1981 13.1249 15.1981 12.4917 14.8075 12.1012L12.5271 9.82075C12.1366 9.43023 11.5034 9.43023 11.1129 9.82075L10.7671 10.1666Z" fill="white"/>
</svg>