<svg xmlns="http://www.w3.org/2000/svg" width="24" height="24" viewBox="0 0 24 24" fill="none">
<path d="M19.4102 6.31528L16.6887 7.04719L17.15 3.57494L17.2594 3.5455C17.9867 3.34991 18.7342 3.78309 18.9291 4.51302L19.4102 6.31528Z" fill="white"/>
<path d="M13.5513 4.54261L15.3347 4.06299L14.8735 7.53524L13.0901 8.01487L13.5513 4.54261Z" fill="white"/>
<path d="M11.7359 5.03076L9.95247 5.51039L9.49121 8.98264L11.2746 8.50302L11.7359 5.03076Z" fill="white"/>
<path d="M5.01075 6.83939L8.13733 5.99854L7.67607 9.47079L6.44878 9.80085H15.2C16.8802 9.80085 17.7202 9.80086 18.362 10.1279C18.9265 10.4155 19.3854 10.8744 19.673 11.4389C20 12.0806 20 12.9207 20 14.6009V16.4777C20 17.0056 20 17.4538 19.9701 17.8213C19.9387 18.2071 19.8701 18.5802 19.6893 18.9362C19.416 19.4746 18.98 19.9122 18.4436 20.1865C18.0889 20.3679 17.7171 20.4368 17.3328 20.4683C16.9666 20.4984 16.5201 20.4984 15.9941 20.4983H8.39052C7.86448 20.4984 7.41802 20.4984 7.05178 20.4683C6.66748 20.4368 6.29575 20.3679 5.94098 20.1865C5.40464 19.9122 4.96858 19.4746 4.6953 18.9362C4.51454 18.5802 4.44592 18.2071 4.41452 17.8213C4.3846 17.4537 4.38461 17.0056 4.38462 16.4777L4.38463 9.80085H4.39002L4.04679 8.51519C3.85192 7.78526 4.28351 7.03498 5.01075 6.83939Z" fill="white"/>
</svg>